<svg xmlns="http://www.w3.org/2000/svg" width="512" height="512" viewBox="0 0 512 512" version="1.1"><path d="M 47.268 1.955 C 40.900 4.247, 37.632 6.506, 32.273 12.320 C 27.437 17.566, 25.177 21.667, 23.356 28.500 C 21.321 36.136, 21.388 476.112, 23.425 483.764 C 26.215 494.243, 33.845 503.485, 44 508.684 L 49.500 511.500 142.892 511.500 L 236.284 511.500 238.290 508.814 C 240.049 506.457, 240.141 505.755, 239.040 503.097 C 238.350 501.430, 237.089 499.489, 236.239 498.783 C 235.016 497.768, 215.643 497.396, 143.432 497 L 52.171 496.500 47.850 493.463 C 42.843 489.943, 39.415 485.253, 37.995 479.983 C 37.340 477.549, 37.082 408.685, 37.247 280.384 L 37.500 84.500 69.607 84.236 C 100.262 83.985, 101.797 83.882, 103.524 81.973 C 106.093 79.134, 105.862 74.116, 103.056 71.844 C 100.949 70.138, 98.388 70, 68.797 70 L 36.816 70 37.178 50.750 C 37.581 29.285, 38.395 26.218, 45.206 20.474 C 52.041 14.711, 45.579 15, 167.534 15 C 242.848 15, 280.769 14.659, 282.055 13.970 C 283.114 13.404, 284.657 11.629, 285.486 10.027 C 287.258 6.600, 286.234 2.731, 283.114 1.061 C 281.748 0.330, 245.548 0.011, 166.816 0.036 C 57.435 0.071, 52.274 0.153, 47.268 1.955 M 303.062 2.648 C 300.423 6.004, 300.952 9.496, 304.593 12.750 C 307.050 14.945, 307.673 15, 330.088 15 C 354.861 15, 356.658 15.301, 362.794 20.474 C 369.605 26.218, 370.419 29.285, 370.822 50.750 L 371.184 70 248.547 70 L 125.909 70 123.455 72.455 C 122.105 73.805, 121 75.634, 121 76.520 C 121 77.972, 122.573 81.721, 123.719 83 C 123.965 83.275, 179.591 83.725, 247.333 84 L 370.500 84.500 370.753 280.384 C 370.918 408.685, 370.660 477.549, 370.005 479.983 C 368.586 485.253, 365.157 489.943, 360.151 493.463 L 355.831 496.500 307.442 497 C 260.722 497.483, 258.986 497.569, 257.090 499.500 C 253.942 502.706, 253.572 506.186, 256.044 509.328 L 258.200 512.070 308.350 511.785 L 358.500 511.500 364 508.684 C 374.155 503.485, 381.785 494.243, 384.575 483.764 C 386.672 475.887, 386.672 36.113, 384.575 28.236 C 381.753 17.637, 373.890 8.067, 364.013 3.210 L 358.500 0.500 331.869 0.191 L 305.238 -0.118 303.062 2.648 M 424 1.594 C 419.454 3.564, 415.353 7.507, 412.658 12.500 L 410.500 16.500 410.241 229.181 L 409.982 441.861 426.952 475.875 C 437.157 496.328, 444.709 510.309, 445.895 510.944 C 448.895 512.550, 453.507 512.207, 455.240 510.250 C 456.093 509.287, 464.262 493.540, 473.395 475.256 L 490 442.012 490 231.449 C 490 81.166, 489.684 19.630, 488.896 16.501 C 487.509 10.992, 481.851 4.291, 476.556 1.886 C 472.996 0.269, 469.747 0.046, 450 0.061 C 432.129 0.075, 426.780 0.390, 424 1.594 M 429.229 15.669 C 425.795 17.051, 425 21.616, 425 39.950 L 425 58 450 58 L 475 58 475 39.950 C 475 21.188, 474.231 17.070, 470.455 15.621 C 468.535 14.884, 431.071 14.928, 429.229 15.669 M 425 76.349 C 425 78.191, 425.291 83.141, 425.647 87.349 L 426.293 95 450 95 L 473.707 95 474.353 87.349 C 474.709 83.141, 475 78.191, 475 76.349 L 475 73 450 73 L 425 73 425 76.349 M 425 271.500 L 425 433 450 433 L 475 433 475 271.500 L 475 110 450 110 L 425 110 425 271.500 M 93.239 134.335 C 88.214 136.157, 83.438 140.463, 81.112 145.269 C 79.210 149.199, 79 151.367, 79 167.119 C 79 183.884, 79.106 184.820, 81.563 189.751 C 84.589 195.823, 91.002 200.578, 97.474 201.548 C 99.822 201.900, 108.439 202.025, 116.622 201.825 C 132.620 201.433, 136.677 200.302, 141.633 194.847 C 146.711 189.259, 147.407 186.403, 147.810 169.500 C 148.168 154.456, 148.334 153.310, 150.595 150.317 C 153.398 146.607, 153.649 143.371, 151.385 140.139 C 150.024 138.197, 149.039 137.882, 145.135 138.146 C 141.948 138.361, 139.679 137.907, 137.873 136.694 C 136.428 135.724, 133.731 134.496, 131.879 133.965 C 127.102 132.595, 97.248 132.881, 93.239 134.335 M 95.923 149.923 L 93 152.846 93 167.288 C 93 180.385, 93.193 181.976, 95.073 184.365 L 97.145 187 112.898 187 C 128.072 187, 128.731 186.915, 130.826 184.686 C 132.625 182.770, 133 181.179, 133 175.462 L 133 168.554 126.225 175.277 C 116.833 184.597, 115.372 184.532, 104.885 174.327 C 98.156 167.778, 97 166.165, 97 163.327 C 97 159.301, 99.968 156, 103.589 156 C 105.227 156, 108.062 157.648, 111.311 160.491 L 116.445 164.982 123.605 157.241 C 130.503 149.783, 130.687 149.456, 128.633 148.285 C 127.253 147.500, 121.620 147.058, 112.673 147.035 L 98.846 147 95.923 149.923 M 179.153 161.750 C 175.774 164.610, 175.472 168.274, 178.340 171.609 L 180.827 174.500 252.808 174.500 C 322.190 174.500, 324.866 174.431, 326.895 172.595 C 329.968 169.814, 329.711 164.704, 326.365 162.073 C 323.756 160.020, 323.048 160, 252.476 160 C 186.069 160, 181.081 160.119, 179.153 161.750 M 91.500 219.896 C 86.598 222.165, 82.612 226.288, 80.553 231.218 C 78.321 236.560, 78.321 267.440, 80.553 272.782 C 82.526 277.505, 86.444 281.640, 91.325 284.150 C 94.811 285.943, 96.863 286.090, 114.480 285.809 L 133.810 285.500 138.155 282.358 C 140.678 280.534, 143.548 277.192, 145 274.390 C 147.286 269.976, 147.529 268.259, 147.839 254.342 C 148.239 236.334, 146.981 230.346, 141.640 224.847 C 135.504 218.529, 133.299 217.997, 113.349 218.022 C 98.113 218.041, 94.914 218.315, 91.500 219.896 M 95.861 233.912 C 93.556 235.778, 93.500 236.206, 93.500 252 C 93.500 273.040, 92.477 272, 113.156 272 C 127.679 272, 128.159 271.932, 130.545 269.545 C 132.935 267.156, 133 266.689, 133 252 C 133 237.311, 132.935 236.844, 130.545 234.455 C 128.159 232.068, 127.679 232, 113.156 232 C 99.942 232, 97.950 232.220, 95.861 233.912 M 178.944 246.844 C 176.133 249.120, 175.908 254.136, 178.488 256.987 C 180.282 258.969, 181.425 259, 252.655 259 C 323.667 259, 325.037 258.963, 327 257 C 328.111 255.889, 329 253.667, 329 252 C 329 250.333, 328.111 248.111, 327 247 C 325.037 245.037, 323.667 245, 253.111 245 C 184.736 245, 181.110 245.090, 178.944 246.844 M 93.976 303.492 C 88.604 305.198, 83.397 309.969, 80.871 315.500 C 79.328 318.879, 79.041 322.208, 79.022 336.934 C 78.997 356.638, 79.979 360.365, 86.646 365.860 C 91.911 370.200, 96.154 371, 113.898 371 C 131.525 371, 135.040 370.229, 140.342 365.197 C 146.099 359.733, 147.346 355.733, 147.809 341.254 C 148.041 333.969, 147.922 325.534, 147.545 322.510 C 146.652 315.367, 142.050 308.392, 136 305.013 C 131.760 302.645, 130.548 302.487, 115 302.278 C 102.902 302.115, 97.293 302.439, 93.976 303.492 M 95.073 319.635 C 93.193 322.024, 93 323.615, 93 336.712 L 93 351.154 95.995 354.149 L 98.990 357.144 114.086 356.822 C 133.898 356.399, 133 357.361, 133 336.564 C 133 316.123, 133.907 317, 112.758 317 L 97.145 317 95.073 319.635 M 178.488 332.013 C 175.908 334.864, 176.133 339.880, 178.944 342.156 C 181.110 343.909, 184.719 344, 252.476 344 C 323.048 344, 323.756 343.980, 326.365 341.927 C 329.559 339.415, 329.969 334.187, 327.171 331.655 C 325.505 330.147, 318.900 330, 252.826 330 C 181.425 330, 180.282 330.031, 178.488 332.013 M 93.239 388.335 C 88.214 390.157, 83.438 394.463, 81.112 399.269 C 79.210 403.199, 79 405.367, 79 421.119 C 79 437.884, 79.106 438.820, 81.563 443.751 C 84.589 449.823, 91.002 454.578, 97.474 455.548 C 99.822 455.900, 108.439 456.025, 116.622 455.825 C 132.620 455.433, 136.677 454.302, 141.633 448.847 C 147.038 442.900, 147.500 440.745, 147.500 421.500 C 147.500 404.962, 147.325 403.175, 145.342 399.500 C 142.587 394.395, 138.498 390.523, 133.782 388.553 C 129.147 386.617, 98.431 386.452, 93.239 388.335 M 95.995 403.851 L 93 406.846 93 421.288 C 93 434.385, 93.193 435.976, 95.073 438.365 L 97.145 441 112.898 441 C 133.902 441, 133 441.884, 133 421.296 C 133 400.661, 133.883 401.600, 114.086 401.178 L 98.990 400.856 95.995 403.851 M 179.153 415.750 C 175.774 418.610, 175.472 422.274, 178.340 425.609 L 180.827 428.500 252.808 428.500 C 322.190 428.500, 324.866 428.431, 326.895 426.595 C 329.968 423.814, 329.711 418.704, 326.365 416.073 C 323.756 414.020, 323.048 414, 252.476 414 C 186.069 414, 181.081 414.119, 179.153 415.750 M 430.718 447.615 C 430.379 447.954, 433.232 454.479, 437.058 462.115 L 444.013 476 450 476 L 455.987 476 462.942 462.115 C 466.768 454.479, 469.621 447.954, 469.282 447.615 C 468.478 446.812, 431.522 446.812, 430.718 447.615" stroke="none" fill="#000000" fill-rule="evenodd"/><path d="M 106 79.326 C 106 80.055, 104.958 81.630, 103.686 82.826 C 101.410 84.964, 100.842 85, 69.686 85 L 38 85 38 281.532 C 38 455.730, 38.174 478.481, 39.531 481.728 C 41.991 487.617, 45.606 491.628, 50.723 494.148 L 55.500 496.500 145.980 497 L 236.459 497.500 238.480 500.711 C 240.416 503.790, 240.769 503.923, 247 503.923 C 253.231 503.923, 253.583 503.790, 255.520 500.711 L 257.539 497.500 305.020 497 C 352.367 496.501, 352.513 496.493, 357.277 494.148 C 362.394 491.628, 366.009 487.617, 368.469 481.728 C 369.826 478.481, 370 455.730, 370 281.532 L 370 85 247.500 85 C 126.333 85, 124.978 84.978, 123 83 C 121.900 81.900, 121 80.325, 121 79.500 C 121 78.300, 119.500 78, 113.500 78 C 107.938 78, 106 78.343, 106 79.326 M 94.994 132.934 C 87.622 135.177, 83.256 139.002, 80.084 146 C 78.290 149.958, 78.041 152.555, 78.022 167.554 C 78.001 183.995, 78.095 184.797, 80.635 189.895 C 85.992 200.646, 93.852 203.475, 116.423 202.780 C 132.535 202.283, 137.086 200.944, 142.112 195.219 C 147.396 189.202, 148 186.578, 148 169.655 C 148 156.889, 148.269 154.022, 149.566 152.945 C 151.707 151.168, 154 146.545, 154 144.004 C 154 142.852, 152.841 140.750, 151.424 139.333 C 149.234 137.143, 148.231 136.840, 144.731 137.309 C 141.692 137.717, 139.945 137.386, 138.057 136.044 C 136.651 135.045, 133.700 133.728, 131.500 133.119 C 127.044 131.885, 98.912 131.742, 94.994 132.934 M 181.259 159.705 C 176.238 160.673, 174.158 169.158, 178 173 C 179.963 174.963, 181.333 175, 252.927 175 L 325.855 175 327.927 172.365 C 331.626 167.663, 330.138 162.143, 324.603 160.039 C 321.950 159.030, 186.396 158.714, 181.259 159.705 M 91.444 218.886 C 86.451 221.154, 80.711 227.683, 79.161 232.858 C 77.700 237.733, 77.635 266.145, 79.072 271.321 C 80.428 276.202, 86.356 282.792, 91.500 285.134 C 94.879 286.673, 98.237 286.959, 113.136 286.978 C 130.518 287, 130.848 286.960, 136.119 284.207 C 139.457 282.463, 142.600 279.800, 144.483 277.120 L 147.500 272.828 147.500 252.164 L 147.500 231.500 144.271 226.850 C 142.095 223.717, 139.339 221.351, 135.824 219.600 C 130.795 217.094, 129.974 217.001, 113.054 217.022 C 98.167 217.041, 94.884 217.324, 91.444 218.886 M 178.635 246.073 C 176.602 247.671, 176 249.027, 176 252 C 176 254.973, 176.602 256.329, 178.635 257.927 C 181.245 259.981, 181.944 260, 253.180 260 L 325.091 260 327.545 257.545 C 330.793 254.298, 330.793 249.702, 327.545 246.455 L 325.091 244 253.180 244 C 181.944 244, 181.245 244.019, 178.635 246.073 M 96.021 302.038 C 89.714 303.356, 83.994 307.837, 80.750 314.002 C 78.057 319.120, 78 319.584, 78.022 336.364 C 78.041 351.446, 78.288 354.039, 80.084 358 C 82.624 363.603, 85.365 366.586, 90.500 369.338 C 94.039 371.235, 96.431 371.522, 111.239 371.825 C 130.799 372.226, 135.445 371.206, 141.267 365.231 C 147.368 358.969, 148 356.274, 148 336.500 C 148 317.250, 147.506 314.924, 142.112 308.781 C 136.977 302.932, 132.643 301.729, 115.500 301.395 C 107.250 301.234, 98.485 301.524, 96.021 302.038 M 178.174 331.314 C 175.471 334.192, 175.355 338.981, 177.911 342.139 L 179.823 344.500 250.661 344.782 C 289.623 344.938, 322.500 344.820, 323.722 344.520 C 329.519 343.100, 331.697 336.427, 327.927 331.635 L 325.855 329 253.102 329 L 180.349 329 178.174 331.314 M 94.994 386.934 C 87.622 389.177, 83.256 393.002, 80.084 400 C 78.290 403.958, 78.041 406.555, 78.022 421.554 C 78.001 437.891, 78.108 438.824, 80.573 443.771 C 83.796 450.238, 89.483 454.543, 96.813 456.065 C 100.152 456.758, 107.925 457.042, 116.423 456.780 C 132.535 456.283, 137.086 454.944, 142.112 449.219 C 147.523 443.057, 148.002 440.775, 147.978 421.282 C 147.959 406.173, 147.679 402.890, 146.114 399.444 C 143.846 394.451, 137.317 388.711, 132.142 387.161 C 127.844 385.873, 99.059 385.698, 94.994 386.934 M 181.259 413.705 C 176.238 414.673, 174.158 423.158, 178 427 C 179.963 428.963, 181.333 429, 252.927 429 L 325.855 429 327.927 426.365 C 331.626 421.663, 330.138 416.143, 324.603 414.039 C 321.950 413.030, 186.396 412.714, 181.259 413.705" stroke="none" fill="#eef5ff" fill-rule="evenodd"/><path d="M 431 448.514 C 431 448.797, 433.928 454.872, 437.507 462.014 L 444.014 475 450 475 L 455.986 475 462.493 462.014 C 466.072 454.872, 469 448.797, 469 448.514 C 469 448.231, 460.450 448, 450 448 C 439.550 448, 431 448.231, 431 448.514" stroke="none" fill="#ffdcd0" fill-rule="evenodd"/><path d="M 426 53 L 426 58 450 58 L 474 58 474 53 L 474 48 450 48 L 426 48 426 53 M 38 65 L 38 70 69.826 70 L 101.651 70 103.826 72.314 C 105.022 73.587, 106 75.387, 106 76.314 C 106 77.745, 107.133 78, 113.500 78 C 120.333 78, 121 77.822, 121 76 C 121 74.900, 121.900 73.100, 123 72 C 124.978 70.022, 126.333 70, 247.500 70 L 370 70 370 65 L 370 60 204 60 L 38 60 38 65" stroke="none" fill="#ff5f7a" fill-rule="evenodd"/><path d="M 425.417 39.500 C 425.418 49.950, 425.566 54.089, 425.746 48.698 C 425.926 43.307, 425.925 34.757, 425.744 29.698 C 425.563 24.639, 425.416 29.050, 425.417 39.500 M 474.417 39.500 C 474.418 49.950, 474.566 54.089, 474.746 48.698 C 474.926 43.307, 474.925 34.757, 474.744 29.698 C 474.563 24.639, 474.416 29.050, 474.417 39.500 M 37.413 52.500 C 37.414 62.400, 37.564 66.315, 37.746 61.199 C 37.928 56.084, 37.927 47.984, 37.744 43.199 C 37.561 38.415, 37.412 42.600, 37.413 52.500 M 370.413 52.500 C 370.414 62.400, 370.564 66.315, 370.746 61.199 C 370.928 56.084, 370.927 47.984, 370.744 43.199 C 370.561 38.415, 370.412 42.600, 370.413 52.500 M 425.193 76.099 C 425.087 78.079, 425.291 83.141, 425.647 87.349 L 426.293 95 450.051 95 L 473.808 95 474.526 84.456 C 474.922 78.656, 474.965 73.631, 474.622 73.289 C 474.280 72.947, 474 75.442, 474 78.833 L 474 85 450.048 85 L 426.095 85 425.740 78.750 C 425.545 75.313, 425.299 74.120, 425.193 76.099 M 53.250 84.748 C 61.912 84.915, 76.087 84.915, 84.750 84.748 C 93.412 84.582, 86.325 84.445, 69 84.445 C 51.675 84.445, 44.587 84.582, 53.250 84.748 M 187.827 84.750 C 221.557 84.896, 276.457 84.896, 309.827 84.750 C 343.197 84.604, 315.600 84.484, 248.500 84.484 C 181.400 84.484, 154.097 84.604, 187.827 84.750 M 105.750 147.743 C 109.737 147.932, 116.263 147.932, 120.250 147.743 C 124.237 147.553, 120.975 147.397, 113 147.397 C 105.025 147.397, 101.763 147.553, 105.750 147.743 M 106.296 217.744 C 110.583 217.932, 117.333 217.931, 121.296 217.742 C 125.258 217.552, 121.750 217.399, 113.500 217.400 C 105.250 217.401, 102.008 217.556, 106.296 217.744 M 105.250 286.743 C 109.513 286.931, 116.487 286.931, 120.750 286.743 C 125.013 286.556, 121.525 286.402, 113 286.402 C 104.475 286.402, 100.987 286.556, 105.250 286.743 M 217.250 329.750 C 236.912 329.901, 269.087 329.901, 288.750 329.750 C 308.413 329.598, 292.325 329.474, 253 329.474 C 213.675 329.474, 197.588 329.598, 217.250 329.750 M 105.750 401.743 C 109.737 401.932, 116.263 401.932, 120.250 401.743 C 124.237 401.553, 120.975 401.397, 113 401.397 C 105.025 401.397, 101.763 401.553, 105.750 401.743 M 440.250 447.746 C 445.613 447.925, 454.387 447.925, 459.750 447.746 C 465.113 447.566, 460.725 447.419, 450 447.419 C 439.275 447.419, 434.887 447.566, 440.250 447.746" stroke="none" fill="#574d56" fill-rule="evenodd"/><path d="M 426 79 L 426 85 450 85 L 474 85 474 79 L 474 73 450 73 L 426 73 426 79 M 37.490 280.500 C 37.490 388.300, 37.607 432.252, 37.750 378.170 C 37.893 324.089, 37.893 235.889, 37.750 182.170 C 37.607 128.452, 37.490 172.700, 37.490 280.500 M 370.490 280.500 C 370.490 388.300, 370.607 432.252, 370.750 378.170 C 370.893 324.089, 370.893 235.889, 370.750 182.170 C 370.607 128.452, 370.490 172.700, 370.490 280.500 M 474.488 271 C 474.488 359.825, 474.606 396.163, 474.750 351.750 C 474.894 307.338, 474.894 234.663, 474.750 190.250 C 474.606 145.838, 474.488 182.175, 474.488 271 M 425.488 271.500 C 425.488 360.050, 425.606 396.127, 425.750 351.671 C 425.894 307.215, 425.894 234.765, 425.750 190.671 C 425.606 146.577, 425.488 182.950, 425.488 271.500 M 106.206 132.741 C 109.895 132.932, 116.195 132.934, 120.206 132.743 C 124.218 132.553, 121.200 132.396, 113.500 132.395 C 105.800 132.393, 102.518 132.549, 106.206 132.741 M 78.405 167.500 C 78.406 176.300, 78.559 179.766, 78.745 175.203 C 78.930 170.639, 78.929 163.439, 78.742 159.203 C 78.555 154.966, 78.404 158.700, 78.405 167.500 M 93.395 167.500 C 93.396 175.200, 93.553 178.218, 93.743 174.206 C 93.934 170.195, 93.932 163.895, 93.741 160.206 C 93.549 156.518, 93.393 159.800, 93.395 167.500 M 103 173.500 C 106.543 177.075, 109.667 180, 109.942 180 C 110.217 180, 107.543 177.075, 104 173.500 C 100.457 169.925, 97.333 167, 97.058 167 C 96.783 167, 99.457 169.925, 103 173.500 M 128.453 173.250 L 124.500 177.500 128.750 173.547 C 131.088 171.373, 133 169.460, 133 169.297 C 133 168.540, 132.129 169.298, 128.453 173.250 M 78.402 252 C 78.402 260.525, 78.556 264.012, 78.743 259.750 C 78.931 255.488, 78.931 248.512, 78.743 244.250 C 78.556 239.988, 78.402 243.475, 78.402 252 M 93.392 252 C 93.392 259.425, 93.549 262.462, 93.742 258.750 C 93.934 255.037, 93.934 248.963, 93.742 245.250 C 93.549 241.537, 93.392 244.575, 93.392 252 M 217.323 244.750 C 237.026 244.901, 268.976 244.901, 288.323 244.750 C 307.671 244.598, 291.550 244.474, 252.500 244.474 C 213.450 244.474, 197.621 244.598, 217.323 244.750 M 217.250 259.750 C 236.912 259.901, 269.087 259.901, 288.750 259.750 C 308.413 259.598, 292.325 259.474, 253 259.474 C 213.675 259.474, 197.588 259.598, 217.250 259.750 M 78.405 336.500 C 78.406 345.300, 78.559 348.766, 78.745 344.203 C 78.930 339.639, 78.929 332.439, 78.742 328.203 C 78.555 323.966, 78.404 327.700, 78.405 336.500 M 93.395 336.500 C 93.396 344.200, 93.553 347.218, 93.743 343.206 C 93.934 339.195, 93.932 332.895, 93.741 329.206 C 93.549 325.518, 93.393 328.800, 93.395 336.500 M 106.750 356.740 C 110.188 356.936, 115.813 356.936, 119.250 356.740 C 122.688 356.545, 119.875 356.385, 113 356.385 C 106.125 356.385, 103.313 356.545, 106.750 356.740 M 106.296 371.744 C 110.583 371.932, 117.333 371.931, 121.296 371.742 C 125.258 371.552, 121.750 371.399, 113.500 371.400 C 105.250 371.401, 102.008 371.556, 106.296 371.744 M 105.750 386.743 C 109.737 386.932, 116.263 386.932, 120.250 386.743 C 124.237 386.553, 120.975 386.397, 113 386.397 C 105.025 386.397, 101.763 386.553, 105.750 386.743 M 78.405 421.500 C 78.406 430.300, 78.559 433.766, 78.745 429.203 C 78.930 424.639, 78.929 417.439, 78.742 413.203 C 78.555 408.966, 78.404 412.700, 78.405 421.500 M 93.395 421.500 C 93.396 429.200, 93.553 432.218, 93.743 428.206 C 93.934 424.195, 93.932 417.895, 93.741 414.206 C 93.549 410.518, 93.393 413.800, 93.395 421.500 M 443.655 475.250 C 443.909 475.663, 446.765 476, 450 476 C 453.235 476, 456.091 475.663, 456.345 475.250 C 456.600 474.837, 453.745 474.500, 450 474.500 C 446.255 474.500, 443.400 474.837, 443.655 475.250" stroke="none" fill="#6c5e69" fill-rule="evenodd"/><path d="M 426 271.500 L 426 433 450 433 L 474 433 474 271.500 L 474 110 450 110 L 426 110 426 271.500" stroke="none" fill="#ffe17d" fill-rule="evenodd"/><path d="M 96 150 C 94.173 151.827, 94 153.333, 94 167.427 L 94 182.855 96.635 184.927 C 99.021 186.804, 100.618 187, 113.524 187 C 131.445 187, 132.183 186.594, 132.812 176.384 L 133.237 169.500 126.215 176.250 C 116.547 185.545, 115.541 185.476, 104.496 174.749 C 95.081 165.606, 94.185 163.222, 98.342 158.389 C 101.990 154.148, 106.061 154.662, 111.559 160.058 L 116.033 164.449 123.267 157.200 C 129.137 151.316, 130.217 149.769, 129 148.990 C 128.175 148.462, 120.862 148.024, 112.750 148.015 C 99.322 148.001, 97.821 148.179, 96 150 M 99.500 232.672 C 94.334 234.052, 94 235.226, 94 252 C 94 272.564, 92.953 271.500, 113.189 271.500 L 128.170 271.500 130.585 268.694 C 132.888 266.019, 133 265.242, 133 252 C 133 238.762, 132.887 237.980, 130.587 235.306 C 128.185 232.512, 128.116 232.499, 114.837 232.319 C 107.502 232.220, 100.600 232.379, 99.500 232.672 M 96.635 319.073 L 94 321.145 94 336.573 C 94 357.023, 93.005 356, 112.889 356 C 133.461 356, 132.500 356.956, 132.500 336.500 C 132.500 316.114, 133.362 317, 113.524 317 C 100.618 317, 99.021 317.196, 96.635 319.073 M 96 404 C 94.173 405.827, 94 407.333, 94 421.427 L 94 436.855 96.635 438.927 C 99.021 440.804, 100.618 441, 113.524 441 C 133.186 441, 132.402 441.759, 132.819 422.313 C 133.117 408.372, 133.004 407.274, 130.996 404.722 L 128.855 402 113.427 402 C 99.333 402, 97.827 402.173, 96 404" stroke="none" fill="#bbf39b" fill-rule="evenodd"/><path d="M 106 79.326 C 106 80.055, 104.958 81.630, 103.686 82.826 C 101.410 84.964, 100.842 85, 69.686 85 L 38 85 38 281.532 C 38 455.730, 38.174 478.481, 39.531 481.728 C 41.991 487.617, 45.606 491.628, 50.723 494.148 L 55.500 496.500 145.980 497 L 236.459 497.500 238.480 500.711 C 240.416 503.790, 240.769 503.923, 247 503.923 C 253.231 503.923, 253.583 503.790, 255.520 500.711 L 257.539 497.500 305.020 497 C 352.367 496.501, 352.513 496.493, 357.277 494.148 C 362.394 491.628, 366.009 487.617, 368.469 481.728 C 369.826 478.481, 370 455.730, 370 281.532 L 370 85 247.500 85 C 126.333 85, 124.978 84.978, 123 83 C 121.900 81.900, 121 80.325, 121 79.500 C 121 78.300, 119.500 78, 113.500 78 C 107.938 78, 106 78.343, 106 79.326 M 94.994 132.934 C 87.622 135.177, 83.256 139.002, 80.084 146 C 78.290 149.958, 78.041 152.555, 78.022 167.554 C 78.001 183.995, 78.095 184.797, 80.635 189.895 C 85.992 200.646, 93.852 203.475, 116.423 202.780 C 132.535 202.283, 137.086 200.944, 142.112 195.219 C 147.396 189.202, 148 186.578, 148 169.655 C 148 156.889, 148.269 154.022, 149.566 152.945 C 151.707 151.168, 154 146.545, 154 144.004 C 154 142.852, 152.841 140.750, 151.424 139.333 C 149.234 137.143, 148.231 136.840, 144.731 137.309 C 141.692 137.717, 139.945 137.386, 138.057 136.044 C 136.651 135.045, 133.700 133.728, 131.500 133.119 C 127.044 131.885, 98.912 131.742, 94.994 132.934 M 181.259 159.705 C 176.238 160.673, 174.158 169.158, 178 173 C 179.963 174.963, 181.333 175, 252.927 175 L 325.855 175 327.927 172.365 C 331.626 167.663, 330.138 162.143, 324.603 160.039 C 321.950 159.030, 186.396 158.714, 181.259 159.705 M 91.444 218.886 C 86.451 221.154, 80.711 227.683, 79.161 232.858 C 77.700 237.733, 77.635 266.145, 79.072 271.321 C 80.428 276.202, 86.356 282.792, 91.500 285.134 C 94.879 286.673, 98.237 286.959, 113.136 286.978 C 130.518 287, 130.848 286.960, 136.119 284.207 C 139.457 282.463, 142.600 279.800, 144.483 277.120 L 147.500 272.828 147.500 252.164 L 147.500 231.500 144.271 226.850 C 142.095 223.717, 139.339 221.351, 135.824 219.600 C 130.795 217.094, 129.974 217.001, 113.054 217.022 C 98.167 217.041, 94.884 217.324, 91.444 218.886 M 178.635 246.073 C 176.602 247.671, 176 249.027, 176 252 C 176 254.973, 176.602 256.329, 178.635 257.927 C 181.245 259.981, 181.944 260, 253.180 260 L 325.091 260 327.545 257.545 C 330.793 254.298, 330.793 249.702, 327.545 246.455 L 325.091 244 253.180 244 C 181.944 244, 181.245 244.019, 178.635 246.073 M 96.021 302.038 C 89.714 303.356, 83.994 307.837, 80.750 314.002 C 78.057 319.120, 78 319.584, 78.022 336.364 C 78.041 351.446, 78.288 354.039, 80.084 358 C 82.624 363.603, 85.365 366.586, 90.500 369.338 C 94.039 371.235, 96.431 371.522, 111.239 371.825 C 130.799 372.226, 135.445 371.206, 141.267 365.231 C 147.368 358.969, 148 356.274, 148 336.500 C 148 317.250, 147.506 314.924, 142.112 308.781 C 136.977 302.932, 132.643 301.729, 115.500 301.395 C 107.250 301.234, 98.485 301.524, 96.021 302.038 M 178.174 331.314 C 175.471 334.192, 175.355 338.981, 177.911 342.139 L 179.823 344.500 250.661 344.782 C 289.623 344.938, 322.500 344.820, 323.722 344.520 C 329.519 343.100, 331.697 336.427, 327.927 331.635 L 325.855 329 253.102 329 L 180.349 329 178.174 331.314 M 94.994 386.934 C 87.622 389.177, 83.256 393.002, 80.084 400 C 78.290 403.958, 78.041 406.555, 78.022 421.554 C 78.001 437.891, 78.108 438.824, 80.573 443.771 C 83.796 450.238, 89.483 454.543, 96.813 456.065 C 100.152 456.758, 107.925 457.042, 116.423 456.780 C 132.535 456.283, 137.086 454.944, 142.112 449.219 C 147.523 443.057, 148.002 440.775, 147.978 421.282 C 147.959 406.173, 147.679 402.890, 146.114 399.444 C 143.846 394.451, 137.317 388.711, 132.142 387.161 C 127.844 385.873, 99.059 385.698, 94.994 386.934 M 181.259 413.705 C 176.238 414.673, 174.158 423.158, 178 427 C 179.963 428.963, 181.333 429, 252.927 429 L 325.855 429 327.927 426.365 C 331.626 421.663, 330.138 416.143, 324.603 414.039 C 321.950 413.030, 186.396 412.714, 181.259 413.705" stroke="none" fill="#eef5ff" fill-rule="evenodd"/><path d="M 286.037 10.403 C 285.534 11.724, 284.533 13.187, 283.812 13.653 C 283.090 14.119, 231.200 14.725, 168.500 15 L 54.500 15.500 50.347 17.721 C 45.305 20.417, 40.303 26.263, 38.985 31 C 38.449 32.925, 38.009 40.237, 38.006 47.250 L 38 60 204 60 L 370 60 369.994 47.250 C 369.988 32.493, 369.070 28.288, 364.790 23.414 C 358.299 16.021, 356.407 15.576, 329.018 15.008 L 304.537 14.500 302.518 11.289 C 300.575 8.196, 300.249 8.076, 293.725 8.039 C 287.475 8.003, 286.880 8.186, 286.037 10.403 M 430.315 15.976 C 426.640 17.509, 426 20.247, 426 34.434 L 426 48 450 48 L 474 48 474 34.111 C 474 14.442, 475.346 15.560, 451.340 15.282 C 440.978 15.163, 431.517 15.475, 430.315 15.976" stroke="none" fill="#ff7e92" fill-rule="evenodd"/><path d="M 84.437 139.250 L 81.500 142.500 84.750 139.563 C 87.779 136.825, 88.460 136, 87.687 136 C 87.515 136, 86.052 137.463, 84.437 139.250 M 217.750 159.750 C 237.138 159.901, 268.863 159.901, 288.250 159.750 C 307.637 159.598, 291.775 159.474, 253 159.474 C 214.225 159.474, 198.363 159.598, 217.750 159.750 M 105.750 202.743 C 109.737 202.932, 116.263 202.932, 120.250 202.743 C 124.237 202.553, 120.975 202.397, 113 202.397 C 105.025 202.397, 101.763 202.553, 105.750 202.743 M 106.250 301.742 C 109.963 301.934, 116.037 301.934, 119.750 301.742 C 123.463 301.549, 120.425 301.392, 113 301.392 C 105.575 301.392, 102.537 301.549, 106.250 301.742 M 217.250 344.750 C 236.912 344.901, 269.087 344.901, 288.750 344.750 C 308.413 344.598, 292.325 344.474, 253 344.474 C 213.675 344.474, 197.588 344.598, 217.250 344.750 M 84.437 393.250 L 81.500 396.500 84.750 393.563 C 86.537 391.948, 88 390.485, 88 390.313 C 88 389.540, 87.175 390.221, 84.437 393.250 M 217.750 413.750 C 237.138 413.901, 268.863 413.901, 288.250 413.750 C 307.637 413.598, 291.775 413.474, 253 413.474 C 214.225 413.474, 198.363 413.598, 217.750 413.750 M 105.750 456.743 C 109.737 456.932, 116.263 456.932, 120.250 456.743 C 124.237 456.553, 120.975 456.397, 113 456.397 C 105.025 456.397, 101.763 456.553, 105.750 456.743" stroke="none" fill="#ece0dc" fill-rule="evenodd"/></svg>